<svg width="200" height="150" viewBox="0 0 200 150" xmlns="http://www.w3.org/2000/svg">
  <!-- Нижняя книга (оранжевая) -->
  <rect x="30" y="80" width="120" height="20" rx="1" fill="#FFA726"/>
  <path d="M30 80 L150 80 L150 100 L30 100 Z" fill="#FB8C00"/>
  <path d="M150 80 L150 100 C140 97 40 97 30 100" fill="#F57C00"/>
  <line x1="35" y1="85" x2="145" y2="85" stroke="#E65100" stroke-width="0.5"/>
  <line x1="35" y1="90" x2="145" y2="90" stroke="#E65100" stroke-width="0.5"/>
  <line x1="35" y1="95" x2="145" y2="95" stroke="#E65100" stroke-width="0.5"/>

  <!-- Средняя книга (зелёная) -->
  <rect x="40" y="60" width="100" height="20" rx="1" fill="#66BB6A"/>
  <path d="M40 60 L140 60 L140 80 L40 80 Z" fill="#4CAF50"/>
  <path d="M140 60 L140 80 C130 77 50 77 40 80" fill="#388E3C"/>
  <line x1="45" y1="65" x2="135" y2="65" stroke="#2E7D32" stroke-width="0.5"/>
  <line x1="45" y1="70" x2="135" y2="70" stroke="#2E7D32" stroke-width="0.5"/>
  <line x1="45" y1="75" x2="135" y2="75" stroke="#2E7D32" stroke-width="0.5"/>

  <!-- Верхняя книга (оранжевая) -->
  <rect x="50" y="40" width="80" height="20" rx="1" fill="#FFB74D"/>
  <path d="M50 40 L130 40 L130 60 L50 60 Z" fill="#FFA726"/>
  <path d="M130 40 L130 60 C120 57 60 57 50 60" fill="#FB8C00"/>
  <line x1="55" y1="45" x2="125" y2="45" stroke="#E65100" stroke-width="0.5"/>
  <line x1="55" y1="50" x2="125" y2="50" stroke="#E65100" stroke-width="0.5"/>
  <line x1="55" y1="55" x2="125" y2="55" stroke="#E65100" stroke-width="0.5"/>

  <!-- Маленькая книга сверху (зелёная) -->
  <rect x="60" y="25" width="60" height="15" rx="1" fill="#81C784"/>
  <path d="M60 25 L120 25 L120 40 L60 40 Z" fill="#66BB6A"/>
  <path d="M120 25 L120 40 C115 37 65 37 60 40" fill="#4CAF50"/>
  <line x1="65" y1="30" x2="115" y2="30" stroke="#2E7D32" stroke-width="0.5"/>
  <line x1="65" y1="35" x2="115" y2="35" stroke="#2E7D32" stroke-width="0.5"/>
</svg>